<?xml version="1.0" standalone="no"?>
<!DOCTYPE svg PUBLIC "-//W3C//DTD SVG 20010904//EN"
 "http://www.w3.org/TR/2001/REC-SVG-20010904/DTD/svg10.dtd">
<svg version="1.0" xmlns="http://www.w3.org/2000/svg"
 width="500.000000pt" height="500.000000pt" viewBox="0 0 500.000000 500.000000"
 preserveAspectRatio="xMidYMid meet">

<g transform="translate(0.000000,500.000000) scale(0.100000,-0.100000)"
fill="#000000" stroke="none">
<path d="M1017 4232 c-16 -3 -17 -47 -17 -517 l0 -514 633 -4 c521 -3 646 -7
709 -20 378 -76 646 -304 764 -649 71 -211 80 -551 19 -764 -112 -389 -388
-632 -811 -710 -93 -18 -169 -19 -1206 -18 l-1108 0 0 -518 0 -518 1033 0
c587 0 1103 4 1197 10 603 38 1093 241 1455 605 205 207 351 442 451 729 192
552 168 1223 -63 1741 -276 618 -816 1001 -1585 1122 -81 12 -202 17 -558 19
-250 2 -554 5 -676 7 -121 1 -228 1 -237 -1z"/>
</g>
</svg>
