<?xml version="1.0" standalone="no"?>
<!DOCTYPE svg PUBLIC "-//W3C//DTD SVG 20010904//EN"
 "http://www.w3.org/TR/2001/REC-SVG-20010904/DTD/svg10.dtd">
<svg version="1.0" xmlns="http://www.w3.org/2000/svg"
 width="1024.000000pt" height="1024.000000pt" viewBox="0 0 1024.000000 1024.000000"
 preserveAspectRatio="xMidYMid meet">

<g transform="translate(0.000000,1024.000000) scale(0.100000,-0.100000)"
fill="#000000" stroke="none">
<path d="M3481 7898 c-14 -37 -461 -1379 -461 -1383 0 -3 970 -5 2155 -5 1185
0 2155 -1 2155 -2 0 -2 -195 -590 -434 -1308 l-433 -1305 -2140 -3 c-1724 -2
-2143 -5 -2151 -15 -10 -12 -175 -489 -393 -1136 -55 -162 -96 -298 -91 -303
5 -5 1088 -7 2408 -6 2701 3 2457 -4 2714 81 402 132 781 436 1033 828 105
163 154 278 272 633 238 715 547 1657 784 2391 136 420 158 528 148 715 -8
141 -31 231 -93 358 -45 90 -70 128 -132 193 -126 134 -259 214 -436 262 l-81
22 -2408 2 -2407 3 -9 -22z"/>
<path d="M1463 5908 c-6 -7 -44 -114 -86 -238 -72 -217 -391 -1154 -403 -1185
-6 -13 180 -15 1724 -15 1638 0 1730 1 1737 18 16 39 475 1415 475 1423 0 5
-737 9 -1719 9 -1363 0 -1721 -3 -1728 -12z"/>
</g>
</svg>
