<?xml version="1.0" encoding="UTF-8"?>
<svg xmlns="http://www.w3.org/2000/svg" xmlns:xlink="http://www.w3.org/1999/xlink" width="1000px" height="1000px" viewBox="0 0 1000 1000" version="1.1">
<g id="surface1">
<path style=" stroke:none;fill-rule:nonzero;fill:rgb(0%,0%,0%);fill-opacity:1;" d="M 964.875 183.832031 C 936.707031 195.667969 931.957031 196.75 895.167969 199.332031 C 868.082031 201.207031 863.625 201.707031 844.667969 208.042969 C 813.417969 218.292969 786.542969 239.292969 760.5 274.292969 C 748.167969 290.875 708.457031 354 708.457031 357.125 C 708.457031 359.5 681.375 398.707031 670.332031 412.125 C 646.417969 441.832031 625.332031 457.082031 581.167969 478.375 C 549.082031 493.375 530.167969 500.207031 410.25 539.917969 C 365.542969 554.625 321.375 570.667969 311.625 575.917969 C 276.125 594.625 248.5 619.082031 219.832031 656.667969 C 178.042969 711.667969 179.332031 711.375 93.082031 696.125 C 83.734375 694.992188 74.355469 694.117188 64.957031 693.5 C 38.125 691.417969 22.332031 695.332031 9.457031 707.417969 L 0 716.375 L 7.375 720.042969 C 11.292969 722.125 22.082031 729.792969 30.75 736.625 C 39.707031 743.707031 49.957031 751.082031 53.667969 752.917969 C 57.332031 754.75 60.75 756.582031 61.292969 757.125 C 61.792969 757.667969 57.582031 764.207031 51.792969 771.832031 C 33.667969 796.042969 27.082031 808.125 27.875 815.5 C 28.667969 822.332031 29.207031 822.582031 45.792969 822.582031 C 67.332031 822.332031 80.207031 820.25 98.332031 813.917969 C 125.417969 804.207031 184.082031 774.75 214.332031 755.582031 C 246.667969 734.75 285.875 714 295.832031 712.167969 C 299.25 711.332031 310.582031 709.25 320.582031 707.417969 C 344.75 702.957031 381.582031 703.457031 428.375 709.5 C 432.875 710.042969 443.917969 711.375 453.375 712.167969 C 462.832031 713.207031 471.292969 714.542969 472.292969 715.332031 C 473.375 715.832031 492.042969 716.875 513.875 717.667969 C 552.792969 718.75 559.875 717.957031 568.042969 709.792969 C 573.292969 704.25 584.082031 683.5 588.792969 668.75 C 597.5 641.957031 606.167969 630.375 604.042969 648.25 C 599.332031 688.5 590.625 718.75 574.332031 748.707031 C 563.542969 769.5 546.707031 794.207031 535.417969 806.832031 C 522 821.292969 522.292969 821.832031 539.082031 819.957031 C 564.875 817.332031 600.375 803.417969 626.417969 785.792969 C 660.875 762.375 695.042969 715.332031 717.667969 659.542969 C 722.125 648.292969 726.832031 650.375 725.292969 663 C 724.75 666.917969 723.707031 676.125 722.917969 683.75 L 721.625 697.417969 L 736.332031 689 C 771.042969 669 795.25 636.417969 824.957031 568.832031 C 834.417969 547.25 861.5 447.082031 869.667969 403.167969 C 872.617188 388.496094 876.386719 374 880.957031 359.75 C 886.25 341.875 889.125 336.625 900.957031 324 C 908.582031 316.082031 927 300.875 941.707031 290.332031 C 971.707031 269.292969 981.417969 259.082031 991.167969 240.125 C 999.832031 222.75 1003 193.042969 996.667969 183.582031 C 991.167969 175.167969 984.832031 175.417969 964.875 183.832031 Z M 964.875 183.832031 "/>
</g>
</svg>
