<?xml version="1.0" encoding="UTF-8"?>
<svg xmlns="http://www.w3.org/2000/svg" xmlns:xlink="http://www.w3.org/1999/xlink" width="1000px" height="1000px" viewBox="0 0 1000 1000" version="1.1">
<g id="surface1">
<path style=" stroke:none;fill-rule:nonzero;fill:rgb(0%,0%,0%);fill-opacity:1;" d="M 683.542969 229.207031 C 678.75 229.207031 675.5 229.792969 672.125 230.582031 L 672.125 231.125 L 672.707031 231.125 C 674.957031 235.457031 678.792969 238.625 681.625 242.5 C 683.875 246.957031 685.792969 251.417969 688.042969 255.832031 L 688.625 255.207031 C 692.542969 252.457031 694.457031 248.042969 694.457031 241.332031 C 692.792969 239.375 692.542969 237.417969 691.125 235.5 C 689.457031 232.707031 685.875 231.332031 683.625 229.125 Z M 240.417969 778.957031 L 201.792969 778.957031 C 200.707031 717.574219 196.953125 656.265625 190.542969 595.207031 L 190.207031 595.207031 L 131.457031 778.957031 L 102.082031 778.957031 L 43.75 595.207031 L 43.332031 595.207031 C 38.769531 656.363281 36.0625 717.640625 35.207031 778.957031 L 0 778.957031 C 2.292969 697.042969 8 620.207031 17.082031 548.542969 L 65 548.542969 L 120.625 717.875 L 120.957031 717.875 L 177.082031 548.542969 L 222.707031 548.542969 C 232.792969 632.5 238.707031 709.375 240.542969 778.957031 Z M 407.792969 608.957031 C 392.042969 694.167969 371.292969 756.167969 345.625 794.792969 C 325.542969 824.625 303.542969 839.5 279.667969 839.5 C 273.292969 839.5 265.5 837.582031 256.082031 833.75 L 256.082031 813.167969 C 260.667969 813.875 266.082031 814.25 272.167969 814.25 C 283.332031 814.25 292.292969 811.125 299.125 805 C 307.332031 797.5 311.417969 789.082031 311.417969 779.792969 C 311.417969 773.332031 308.207031 760.207031 301.832031 740.457031 L 259.582031 608.957031 L 297.5 608.957031 L 327.792969 707.292969 C 334.625 729.625 337.5 745.207031 336.332031 754.082031 C 353 709.75 364.582031 661.292969 371.125 608.957031 Z M 921.332031 778.957031 L 811.75 778.957031 L 811.75 548.542969 L 848.625 548.542969 L 848.625 750.625 L 921.332031 750.625 Z M 783 784.582031 L 740.667969 763.75 C 744.417969 760.582031 748.042969 757.167969 751.292969 753.332031 C 769.332031 732.25 778.292969 700.917969 778.292969 659.457031 C 778.292969 583.207031 748.375 545.042969 688.5 545.042969 C 659.167969 545.042969 636.25 554.707031 619.75 574.082031 C 601.832031 595.25 592.832031 626.417969 592.832031 667.625 C 592.832031 708.125 600.75 737.875 616.75 756.792969 C 631.332031 773.875 653.292969 782.417969 682.707031 782.417969 C 693.707031 782.417969 703.792969 781.042969 712.917969 778.332031 L 768.125 810.5 L 783.125 784.582031 Z M 645.832031 732.832031 C 636.457031 717.832031 631.792969 693.667969 631.792969 660.5 C 631.792969 602.457031 649.457031 573.417969 684.707031 573.417969 C 703.167969 573.417969 716.792969 580.375 725.417969 594.25 C 734.75 609.332031 739.417969 633.25 739.417969 666.042969 C 739.417969 724.542969 721.75 753.875 686.5 753.875 C 667.957031 753.875 654.417969 746.917969 645.75 733.042969 Z M 576.75 715.125 C 576.75 734.707031 569.582031 750.792969 555.25 763.292969 C 540.917969 775.792969 521.792969 782.042969 497.582031 782.042969 C 474.957031 782.042969 453.25 774.875 432.042969 760.582031 L 441.917969 740.75 C 460.167969 749.917969 476.625 754.417969 491.5 754.417969 C 505.332031 754.417969 516.207031 751.375 524.125 745.25 C 532.152344 739.199219 536.796875 729.675781 536.625 719.625 C 536.625 705.875 527.042969 694.207031 509.625 684.417969 C 493.457031 675.542969 461.167969 657.042969 461.167969 657.042969 C 443.582031 644.25 434.832031 630.542969 434.832031 608 C 434.832031 589.25 441.375 574.25 454.417969 562.792969 C 467.542969 551.207031 484.417969 545.5 505.25 545.5 C 526.582031 545.5 546.082031 551.167969 563.582031 562.582031 L 554.707031 582.417969 C 540.726562 576.273438 525.648438 573.015625 510.375 572.832031 C 498.582031 572.832031 489.457031 575.667969 483.125 581.417969 C 476.617188 586.804688 472.835938 594.800781 472.792969 603.25 C 472.792969 616.917969 482.542969 628.667969 500.542969 638.667969 C 516.917969 647.625 550 666.582031 550 666.582031 C 568.042969 679.292969 577 692.832031 577 715.25 Z M 967.667969 471.292969 C 945.375 470.707031 928.082031 472.957031 913.625 479.125 C 909.457031 480.792969 902.792969 480.792969 902.207031 486.082031 C 904.5 488.292969 904.832031 491.917969 906.792969 495 C 910.125 500.582031 915.875 508.042969 921.207031 511.957031 C 927.042969 516.542969 932.875 520.957031 939 524.875 C 949.832031 531.542969 962.125 535.5 972.75 542.207031 C 978.792969 546.125 984.957031 551.082031 991.082031 555.25 C 994.125 557.332031 996.082031 561.082031 1000 562.417969 L 1000 561.582031 C 998.082031 559.082031 997.5 555.457031 995.625 552.667969 C 992.832031 549.875 990.042969 547.375 987.292969 544.625 C 979.109375 533.84375 969.347656 524.363281 958.332031 516.5 C 949.417969 510.417969 929.917969 501.917969 926.25 491.707031 L 925.707031 491.125 C 931.792969 490.582031 939.042969 488.375 944.875 486.707031 C 954.332031 484.207031 963 484.75 972.792969 482.292969 C 977.207031 481.167969 981.667969 479.792969 986.125 478.375 L 986.125 475.875 C 981.125 470.875 977.375 464.082031 972.207031 459.417969 C 957.785156 446.8125 942.40625 435.347656 926.207031 425.125 C 917.457031 419.542969 906.375 415.957031 897.167969 411.207031 C 893.832031 409.542969 888.25 408.707031 886.332031 405.917969 C 881.332031 399.832031 878.417969 391.75 874.875 384.5 C 866.691406 368.628906 859.089844 352.464844 852.082031 336.042969 C 847.082031 325.125 844.042969 314.25 837.917969 304.25 C 809.167969 256.875 778.042969 228.167969 730.167969 200.082031 C 719.875 194.25 707.542969 191.75 694.5 188.667969 C 687.542969 188.332031 680.582031 187.832031 673.667969 187.542969 C 669.082031 185.582031 664.667969 180.292969 660.75 177.75 C 644.917969 167.75 603.917969 146.082031 592.25 174.75 C 584.75 192.832031 603.375 210.667969 609.832031 219.832031 C 614.625 226.207031 620.667969 233.5 624 240.667969 C 625.957031 245.5 626.5 250.457031 628.457031 255.5 C 632.875 267.75 637.082031 281.417969 642.917969 292.875 C 645.957031 298.707031 649.292969 304.832031 653.207031 310.082031 C 655.457031 313.125 659.292969 314.542969 660.167969 319.542969 C 656.25 325.207031 656 333.457031 653.75 340.375 C 643.75 371.917969 647.667969 410.917969 661.832031 434.125 C 666.292969 441.042969 676.917969 456.375 691.125 450.5 C 703.625 445.5 700.875 429.667969 704.457031 415.707031 C 705.292969 412.375 704.75 410.167969 706.457031 407.917969 L 706.457031 408.542969 C 710.375 416.375 714.292969 423.832031 717.875 431.667969 C 726.457031 445.332031 741.457031 459.5 754 468.957031 C 760.667969 473.957031 765.957031 482.625 774.292969 485.707031 L 774.292969 484.875 L 773.667969 484.875 C 771.875 482.457031 769.5 481.292969 767.25 479.332031 C 761.96875 474.160156 757.089844 468.589844 752.667969 462.667969 C 740.925781 446.625 730.515625 429.652344 721.542969 411.917969 C 716.957031 403.167969 713.125 393.75 709.457031 385.125 C 707.792969 381.792969 707.792969 376.792969 705 375.125 C 700.832031 381.207031 694.707031 386.5 691.667969 394 C 686.375 406 685.832031 420.75 683.832031 436.082031 C 682.707031 436.375 683.25 436.082031 682.707031 436.667969 C 673.792969 434.5 670.75 425.25 667.417969 417.5 C 659.082031 397.707031 657.707031 365.917969 664.917969 343.125 C 666.875 337.292969 675.207031 318.875 671.875 313.292969 C 670.125 308 664.625 304.957031 661.582031 300.667969 C 657.671875 295.082031 654.320312 289.121094 651.582031 282.875 C 644.917969 267.292969 641.582031 250.042969 634.332031 234.457031 C 631 227.25 625.167969 219.707031 620.417969 213.082031 C 615.125 205.582031 609.292969 200.292969 605.082031 191.417969 C 603.707031 188.375 601.75 183.332031 603.957031 180 C 604.542969 177.75 605.707031 176.875 607.875 176.25 C 611.542969 173.25 621.832031 177.167969 625.457031 178.832031 C 635.75 183 644.417969 186.917969 653.042969 192.75 C 656.957031 195.5 661.167969 200.792969 666.167969 202.167969 L 672 202.167969 C 680.917969 204.125 690.957031 202.75 699.292969 205.207031 C 714.082031 209.957031 727.417969 216.875 739.375 224.375 C 776.222656 247.914062 806.191406 280.773438 826.25 319.625 C 829.582031 326.042969 831.042969 331.917969 834.082031 338.582031 C 839.917969 352.332031 847.125 366.207031 853.042969 379.5 C 858.875 392.625 864.5 406 872.875 416.875 C 877.042969 422.707031 893.792969 425.75 901.292969 428.792969 C 906.832031 431.292969 915.457031 433.582031 920.457031 436.625 C 930.042969 442.457031 939.375 449.125 948.375 455.542969 C 952.957031 458.707031 966.832031 465.667969 967.667969 471.292969 Z M 967.667969 471.292969 "/>
</g>
</svg>
