<?xml version="1.0" encoding="UTF-8"?>
<svg xmlns="http://www.w3.org/2000/svg" xmlns:xlink="http://www.w3.org/1999/xlink" width="1000px" height="1000px" viewBox="0 0 1000 696" version="1.1">
<g id="surface1">
<path style=" stroke:none;fill-rule:nonzero;fill:rgb(0%,0%,0%);fill-opacity:1;" d="M 250.742188 33.460938 C 167.410156 55.027344 110.117188 113.027344 83.707031 202.628906 C 75.519531 230.140625 73.660156 243.898438 73.289062 280.707031 C 72.542969 347.257812 85.195312 393.730469 117.929688 443.179688 C 147.320312 487.792969 183.40625 515.679688 236.605469 534.269531 L 265.996094 544.679688 L 474.332031 545.792969 C 693.453125 547.28125 722.46875 545.421875 762.277344 530.921875 C 823.289062 508.242188 872.023438 458.792969 897.695312 394.101562 C 911.832031 358.039062 916.292969 329.78125 916.292969 282.5625 C 915.550781 203 893.230469 145.371094 842.632812 94.808594 C 808.78125 60.601562 781.25 44.242188 738.09375 33.460938 C 710.9375 26.398438 696.800781 26.027344 493.304688 26.398438 C 294.269531 26.398438 274.925781 27.140625 250.742188 33.460938 Z M 710.9375 113.027344 C 743.675781 120.089844 761.90625 129.757812 784.226562 152.0625 C 837.054688 204.488281 849.332031 307.101562 812.128906 380.347656 C 797.992188 408.230469 769.71875 436.117188 742.929688 448.382812 L 719.867188 459.167969 L 269.71875 459.167969 L 245.535156 447.640625 C 188.988281 420.5 156.621094 362.5 156.25 287.398438 C 156.25 249.472656 161.457031 224.191406 175.222656 194.449219 C 195.3125 152.0625 237.722656 118.972656 281.621094 111.539062 C 291.292969 110.050781 386.53125 108.5625 492.929688 108.191406 C 646.207031 108.191406 691.59375 108.9375 710.9375 113.027344 Z M 710.9375 113.027344 "/>
<path style=" stroke:none;fill-rule:nonzero;fill:rgb(0%,0%,0%);fill-opacity:1;" d="M 97.84375 575.167969 C 75.148438 580 57.664062 620.527344 66.59375 648.039062 C 76.265625 676.667969 93.75 684.101562 152.53125 684.101562 C 208.707031 684.101562 223.214844 679.269531 234.375 656.589844 C 247.394531 629.078125 242.929688 604.167969 221.355469 583.71875 C 211.679688 574.792969 209.449219 574.421875 158.855469 573.679688 C 129.835938 573.679688 102.304688 574.050781 97.84375 575.167969 Z M 217.261719 603.421875 C 227.304688 617.179688 227.304688 639.488281 217.261719 653.242188 L 209.449219 663.652344 L 154.761719 664.769531 C 101.191406 665.511719 100.074219 665.511719 91.144531 656.589844 C 77.753906 643.207031 77.753906 613.460938 91.144531 600.078125 C 100.074219 591.152344 101.191406 591.152344 154.761719 591.898438 L 209.449219 593.011719 Z M 217.261719 603.421875 "/>
<path style=" stroke:none;fill-rule:nonzero;fill:rgb(0%,0%,0%);fill-opacity:1;" d="M 252.976562 628.332031 L 252.976562 684.101562 L 275.667969 684.101562 L 274.554688 637.628906 L 273.4375 591.152344 L 315.105469 591.152344 C 356.769531 591.152344 357.144531 591.152344 359.375 600.449219 C 363.46875 616.808594 356.027344 620.898438 321.800781 620.898438 L 291.292969 620.898438 L 323.289062 652.5 C 348.957031 677.410156 357.886719 684.101562 366.445312 684.101562 C 377.230469 684.101562 377.230469 684.101562 356.027344 662.539062 L 334.820312 640.972656 L 351.5625 636.511719 C 379.835938 629.078125 387.277344 602.308594 366.445312 581.488281 C 357.886719 572.9375 355.65625 572.5625 305.058594 572.5625 L 252.976562 572.5625 Z M 252.976562 628.332031 "/>
<path style=" stroke:none;fill-rule:nonzero;fill:rgb(0%,0%,0%);fill-opacity:1;" d="M 453.125 578.882812 C 450.148438 582.601562 442.707031 593.757812 436.382812 604.167969 C 430.058594 614.207031 416.667969 636.511719 405.878906 653.617188 L 386.90625 684.101562 L 396.949219 684.101562 C 405.507812 684.101562 409.597656 680.757812 417.410156 667.371094 L 427.828125 650.640625 L 449.03125 650.640625 C 466.519531 650.640625 471.726562 649.152344 475.445312 643.207031 C 479.910156 636.140625 479.167969 635.769531 459.449219 635.769531 C 448.289062 635.769531 438.988281 634.652344 438.988281 633.539062 C 438.988281 630.9375 461.308594 598.589844 462.796875 598.589844 C 463.542969 598.589844 476.191406 617.921875 491.070312 641.347656 C 513.019531 676.292969 519.34375 684.101562 526.785156 684.101562 C 531.621094 684.101562 535.714844 683.359375 535.714844 682.242188 C 535.714844 678.527344 471.726562 578.140625 467.261719 575.539062 C 461.308594 571.449219 459.449219 571.820312 453.125 578.882812 Z M 453.125 578.882812 "/>
<path style=" stroke:none;fill-rule:nonzero;fill:rgb(0%,0%,0%);fill-opacity:1;" d="M 558.035156 579.257812 C 519.71875 598.21875 524.554688 669.230469 564.730469 680.011719 C 572.171875 682.242188 595.609375 684.101562 616.070312 684.101562 C 652.15625 684.101562 654.019531 683.730469 659.96875 674.808594 L 665.921875 665.511719 L 616.445312 665.511719 C 567.707031 665.511719 566.59375 665.140625 557.664062 655.847656 C 550.59375 648.410156 548.734375 642.089844 548.734375 628.332031 C 548.734375 614.578125 550.59375 608.257812 557.664062 600.820312 C 566.59375 591.527344 568.082031 591.152344 611.234375 591.152344 C 649.179688 591.152344 656.621094 590.039062 660.714844 584.832031 C 663.320312 581.117188 665.921875 577.027344 665.921875 575.167969 C 665.921875 573.679688 644.71875 572.5625 618.675781 572.5625 C 580.730469 572.5625 568.453125 574.050781 558.035156 579.257812 Z M 558.035156 579.257812 "/>
<path style=" stroke:none;fill-rule:nonzero;fill:rgb(0%,0%,0%);fill-opacity:1;" d="M 684.523438 628.332031 L 684.523438 684.101562 L 725.074219 684.101562 C 763.394531 684.101562 766.367188 683.730469 771.949219 675.921875 L 777.53125 667.371094 L 738.46875 666.257812 L 699.40625 665.140625 L 699.40625 619.039062 C 699.40625 575.167969 699.03125 572.5625 691.964844 572.5625 C 684.894531 572.5625 684.523438 575.167969 684.523438 628.332031 Z M 684.523438 628.332031 "/>
<path style=" stroke:none;fill-rule:nonzero;fill:rgb(0%,0%,0%);fill-opacity:1;" d="M 809.152344 578.511719 C 792.410156 586.691406 783.855469 601.191406 781.992188 622.757812 C 780.132812 645.4375 787.203125 663.652344 802.828125 674.808594 C 811.757812 681.128906 818.824219 682.242188 859.003906 682.242188 C 902.53125 682.242188 905.132812 681.871094 910.34375 674.0625 L 915.921875 665.511719 L 867.1875 665.511719 C 819.941406 665.511719 817.707031 665.140625 809.152344 656.21875 C 790.550781 638 795.015625 635.769531 848.214844 635.769531 C 892.484375 635.769531 896.578125 635.027344 900.296875 628.332031 C 904.019531 620.898438 903.273438 620.898438 851.933594 620.898438 C 794.644531 620.898438 790.550781 619.039062 809.152344 600.449219 C 817.707031 591.527344 820.3125 591.152344 861.605469 591.152344 C 898.808594 591.152344 905.878906 590.039062 909.96875 584.832031 C 912.574219 581.117188 915.179688 577.027344 915.179688 575.167969 C 915.179688 573.679688 893.972656 572.5625 867.929688 572.5625 C 832.960938 572.5625 817.335938 574.050781 809.152344 578.511719 Z M 809.152344 578.511719 "/>
</g>
</svg>
