<?xml version="1.0" encoding="UTF-8"?>
<svg xmlns="http://www.w3.org/2000/svg" xmlns:xlink="http://www.w3.org/1999/xlink" width="1000px" height="1000px" viewBox="0 0 1000 1000" version="1.1">
<g id="surface1">
<path style=" stroke:none;fill-rule:nonzero;fill:rgb(0%,0%,0%);fill-opacity:1;" d="M 981.640625 613.449219 C 973.503906 597.519531 959.429688 594.246094 937.320312 598.816406 C 868.433594 613.027344 841.757812 604.285156 832.085938 598.019531 C 888.003906 512.679688 933.960938 409.605469 958.800781 313.449219 C 970.109375 269.671875 992.058594 166.628906 963.890625 116.300781 C 962.09375 112.855469 959.988281 109.578125 957.605469 106.507812 C 903.878906 37.859375 825.027344 1.035156 729.578125 0.0195312 C 667.300781 -0.636719 614.140625 14.441406 599.742188 19.996094 C 592.609375 18.664062 585.441406 17.53125 578.246094 16.597656 C 560.207031 13.328125 541.933594 11.546875 523.605469 11.269531 C 474.347656 10.503906 431.777344 22.277344 396.527344 46.296875 C 360.808594 32.917969 196.996094 -22.246094 95.617188 49.578125 C 38.996094 89.691406 12.859375 161.386719 17.925781 262.679688 C 19.628906 296.761719 39.046875 401.597656 69.6875 501.996094 C 88.847656 564.765625 108.800781 614.574219 129.414062 651.246094 C 152.453125 692.671875 176.324219 717.632812 200.839844 725.808594 C 219.484375 732.019531 248.039062 731.8125 278.261719 695.480469 C 311.644531 655.332031 344.523438 619.402344 359.289062 603.523438 C 377.417969 613.335938 397.054688 618.628906 417.203125 619.242188 C 413.710938 623.59375 410.277344 627.835938 406.921875 632.136719 C 392.800781 650.0625 389.863281 653.792969 344.414062 663.148438 C 331.488281 665.816406 297.144531 672.894531 296.644531 696.960938 C 296.542969 702.0625 298.015625 706.582031 300.476562 710.578125 C 309.929688 728.207031 338.875 735.984375 342.765625 736.957031 C 398.371094 750.855469 447.117188 740.792969 483.242188 708.679688 C 482.535156 801.636719 486.472656 892.738281 497.632812 920.652344 C 506.851562 943.691406 529.375 1000.007812 600.515625 1000 C 610.953125 1000 622.445312 998.789062 635.082031 996.078125 C 709.328125 980.160156 741.570312 947.347656 754.042969 875 C 760.304688 838.722656 770.773438 755.195312 776.492188 704.117188 C 777.195312 701.1875 777.980469 699.085938 778.867188 698.441406 C 778.894531 698.421875 781.769531 696.480469 796.667969 699.722656 L 809.089844 700.933594 L 809.710938 700.976562 C 844.996094 702.574219 889.355469 695.035156 915.179688 683.023438 C 942.003906 670.574219 990.417969 640.011719 981.640625 613.449219 Z M 98.792969 494.855469 C 67.8125 393.363281 49.710938 291.308594 48.277344 262.691406 C 43.753906 172.214844 65.660156 109.238281 113.375 75.496094 C 189.902344 21.386719 315.035156 52.960938 367.875 70.078125 C 367.742188 70.210938 367.601562 70.332031 367.464844 70.472656 C 283.140625 155.636719 285.140625 301.136719 285.351562 310.035156 C 285.339844 313.460938 285.625 318.320312 286.023438 325.003906 C 287.476562 349.476562 290.175781 395.019531 282.960938 446.605469 C 276.257812 494.539062 291.035156 541.453125 323.496094 575.320312 C 326.855469 578.824219 330.363281 582.117188 333.988281 585.210938 C 319.539062 600.6875 288.136719 634.902344 254.714844 675.113281 C 231.0625 703.550781 214.730469 698.101562 209.359375 696.308594 C 193.027344 690.863281 175.484375 671.847656 157.769531 641.210938 C 137.789062 606.253906 117.625 556.558594 98.792969 494.855469 Z M 349.089844 706.816406 C 341.960938 705.035156 335.460938 702.101562 331.082031 699.433594 C 334.789062 697.792969 340.976562 695.675781 351.222656 693.5625 C 404.691406 682.558594 412.949219 674.789062 430.984375 651.886719 C 435.117188 646.636719 439.800781 640.691406 446.289062 633.445312 C 456.476562 621.734375 460.707031 623.457031 467.5625 626.300781 C 474.0625 628.992188 480.386719 637.132812 482.957031 646.101562 C 484.171875 650.332031 485.539062 658.371094 481.074219 664.617188 C 443.394531 717.359375 388.507812 716.675781 349.089844 706.816406 Z M 436.339844 540.648438 L 434.152344 546.523438 C 428.613281 561.382812 423.457031 575.195312 420.261719 588.316406 C 392.453125 588.230469 365.394531 576.351562 344.824219 554.882812 C 318.664062 527.585938 306.777344 489.617188 312.222656 450.699219 C 319.835938 396.203125 317.023438 348.75 315.511719 323.257812 C 315.304688 319.6875 315.117188 316.5625 315.003906 314.097656 C 327.324219 303.175781 384.417969 272.585938 425.125 281.914062 C 443.703125 286.171875 455.023438 298.816406 459.730469 320.578125 C 484.085938 433.238281 462.953125 480.191406 445.972656 517.925781 C 442.472656 525.699219 439.167969 533.046875 436.339844 540.648438 Z M 743.164062 731.171875 C 742.457031 738.539062 741.671875 746.835938 740.585938 756 L 734.503906 774.261719 C 733.5 798.527344 731.496094 805.789062 728.953125 814.972656 C 726.3125 824.519531 723.316406 835.351562 721.480469 859.035156 C 716.894531 917.960938 684.886719 951.8125 620.761719 965.554688 C 557.617188 979.101562 546.417969 944.855469 536.546875 914.648438 C 535.535156 911.484375 534.46875 908.335938 533.339844 905.207031 C 524.367188 880.800781 525.378906 846.378906 526.785156 798.746094 C 527.472656 775.363281 525.746094 719.523438 513.023438 688.488281 C 513.207031 676.269531 513.464844 663.867188 513.816406 651.328125 C 512.777344 643.707031 512.164062 640.8125 511.351562 637.972656 C 506.242188 620.125 493.796875 605.195312 478.863281 599.007812 C 472.929688 596.550781 462.039062 592.042969 448.953125 595.386719 C 451.746094 583.886719 456.582031 570.910156 461.828125 556.851562 L 464.035156 550.933594 C 466.511719 544.265625 469.617188 537.363281 472.910156 530.050781 C 490.679688 490.566406 515.015625 436.496094 488.601562 314.332031 C 478.707031 268.578125 445.667969 246.238281 395.582031 251.425781 C 365.554688 254.535156 338.085938 266.648438 324.382812 273.597656 C 321.636719 274.988281 318.914062 276.433594 316.226562 277.933594 C 320.050781 231.832031 334.5 145.679688 388.546875 91.171875 C 392.558594 87.125 396.777344 83.289062 401.183594 79.671875 C 438.5625 53.210938 477.816406 41.546875 523.960938 42.300781 C 541.007812 42.578125 557.367188 43.710938 572.886719 45.675781 C 653.679688 60.441406 708.050781 105.957031 741.050781 144.953125 C 774.980469 185.050781 793.351562 225.433594 800.683594 247.214844 C 745.550781 241.609375 708.042969 252.5 689.027344 279.675781 C 647.671875 338.796875 711.652344 453.546875 742.410156 508.691406 C 748.046875 518.800781 752.917969 527.535156 754.445312 531.246094 C 764.457031 555.515625 777.425781 571.714844 786.890625 583.546875 C 789.792969 587.171875 792.609375 590.6875 794.746094 593.753906 C 778.046875 598.566406 748.046875 609.691406 750.777344 665.296875 C 750.265625 671.808594 749.015625 683.917969 747.304688 699.246094 C 745.382812 707.898438 744.378906 718.425781 743.164062 731.171875 Z M 780.265625 663.625 C 778.578125 628.976562 791.480469 625.355469 805.128906 621.519531 C 807.019531 621.003906 808.894531 620.4375 810.753906 619.828125 C 812.515625 621.390625 814.382812 622.824219 816.347656 624.121094 C 840.109375 639.808594 882.273438 641.675781 941.628906 629.722656 C 933.230469 637.089844 920.007812 646.363281 901.910156 654.765625 C 884.832031 662.695312 856.253906 668.640625 829.105469 669.917969 C 799.117188 671.316406 783.859375 666.554688 780.265625 663.625 Z M 803.996094 277.324219 C 803.75 291.941406 801.738281 305.207031 799.605469 319.0625 C 797.3125 333.960938 794.9375 349.371094 794.335938 368.070312 C 793.746094 386.269531 796.019531 405.191406 798.222656 423.492188 C 802.664062 460.449219 807.222656 498.503906 789.574219 536.050781 C 786.644531 530.859375 784.035156 525.492188 781.757812 519.984375 C 779.5625 514.667969 774.804688 506.125 768.210938 494.308594 C 742.5625 448.304688 682.488281 340.574219 713.242188 296.617188 C 729.054688 274.003906 769.109375 273.027344 803.996094 277.324219 Z M 813.511719 569.5625 C 812.335938 568.0625 811.152344 566.574219 809.957031 565.085938 L 808.480469 563.238281 C 838.738281 513.257812 832.820312 463.8125 827.554688 419.964844 C 825.390625 401.976562 823.351562 384.984375 823.867188 369.023438 C 824.402344 352.105469 826.640625 337.597656 828.804688 323.5625 C 831.464844 306.269531 834.171875 288.382812 833.425781 267.292969 C 833.984375 265.078125 834.207031 262.464844 833.917969 259.367188 C 832.011719 239.136719 808.921875 178.617188 761.859375 123.824219 C 736.542969 94.355469 699.792969 61.441406 649.820312 38.847656 C 671.699219 34.402344 701.1875 30.367188 734.171875 31.101562 C 819.648438 33 887.277344 64.996094 935.179688 126.199219 C 968.085938 186.859375 926.449219 391.835938 813.511719 569.5625 Z M 446.152344 314.722656 C 445.113281 322.195312 433.285156 332.324219 420.273438 332.324219 C 409.101562 331.007812 401.214844 326.089844 395.824219 318.941406 C 393.917969 316.421875 390.8125 311.523438 391.429688 307.089844 C 391.660156 305.421875 392.515625 302.988281 395.285156 300.890625 C 400.207031 297.167969 409.941406 295.785156 420.683594 297.277344 C 433.863281 299.117188 447.457031 305.355469 446.152344 314.722656 Z M 776.589844 297.578125 C 777.054688 300.878906 774.550781 305.953125 770.210938 310.503906 C 767.367188 313.492188 761.378906 318.675781 753.214844 319.804688 C 737.863281 320.019531 727.535156 310.253906 726.730469 304.535156 C 725.730469 297.179688 737.734375 291.589844 750.109375 289.867188 C 762.484375 288.140625 775.570312 290.234375 776.589844 297.578125 Z M 776.589844 297.578125 "/>
</g>
</svg>
