<?xml version="1.0" encoding="UTF-8"?>
<svg xmlns="http://www.w3.org/2000/svg" xmlns:xlink="http://www.w3.org/1999/xlink" width="1000px" height="1000px" viewBox="0 0 1000 1000" version="1.1">
<g id="surface1">
<path style=" stroke:none;fill-rule:nonzero;fill:rgb(0%,0%,0%);fill-opacity:1;" d="M 903.25 21.707031 C 860.25 -16.625 808.25 -1.207031 756.875 44.375 C 748.953125 51.46875 741.351562 58.90625 734.082031 66.667969 C 646.207031 159.875 564.667969 332.5 539.332031 464.332031 C 549.207031 484.332031 556.917969 509.875 562 529.375 C 564.546875 539.074219 566.828125 548.839844 568.832031 558.667969 C 568.832031 558.667969 568.042969 555.707031 564.832031 546.332031 L 562.75 540.25 C 562.320312 539.128906 561.863281 538.015625 561.375 536.917969 C 555.625 523.582031 539.792969 495.457031 532.792969 483.207031 C 526.832031 500.832031 521.542969 517.292969 517.125 532.207031 C 537.292969 569.042969 549.542969 632.207031 549.542969 632.207031 C 549.542969 632.207031 548.5 628.082031 543.417969 613.792969 C 538.957031 601.167969 516.582031 561.957031 511.25 552.792969 C 502.207031 586.292969 498.582031 608.875 501.832031 614.375 C 508.167969 625.042969 514.167969 643.457031 519.417969 663.792969 C 531.332031 709.625 539.625 765.457031 539.625 765.457031 L 540.332031 774.792969 C 538.769531 812.96875 539.546875 851.207031 542.667969 889.292969 C 546.625 937.042969 554.042969 978.042969 563.5 1000 L 569.957031 996.5 C 556.042969 953.25 550.375 896.542969 552.875 831.207031 C 556.625 731.292969 579.625 610.792969 622.082031 485.207031 C 693.875 295.625 793.457031 143.5 884.582031 70.832031 C 801.542969 145.832031 689.082031 388.75 655.417969 478.667969 C 617.75 579.332031 591.042969 673.832031 574.957031 764.375 C 602.707031 679.5 692.5 643.042969 692.5 643.042969 C 692.5 643.042969 736.542969 588.707031 788 511.125 C 757.167969 518.167969 706.542969 530.207031 689.582031 537.332031 C 664.582031 547.792969 657.832031 551.375 657.832031 551.375 C 657.832031 551.375 738.875 502.042969 808.375 479.707031 C 903.957031 329.167969 1008.125 115.292969 903.25 21.707031 M 129.375 44.332031 C 87.199219 44.492188 53.054688 78.65625 52.917969 120.832031 L 52.917969 812.832031 C 53.054688 854.996094 87.210938 889.136719 129.375 889.25 L 521.792969 889.25 C 518.851562 851.726562 518.128906 814.066406 519.625 776.457031 C 519.375 773.875 519.167969 770.582031 518.957031 768.125 C 513.875 734.820312 507.300781 701.757812 499.25 669.042969 C 494.207031 649.457031 487.792969 631.625 483.875 625 C 479.042969 616.792969 479.792969 612.082031 479.832031 607 C 479.832031 602 480.457031 596.792969 481.375 590.917969 C 483.84375 576.238281 487.097656 561.703125 491.125 547.375 L 500.167969 546.207031 C 499.457031 544.75 499.582031 543.5 498.875 542.167969 L 497.167969 526.292969 C 502.15625 509.609375 507.460938 493.023438 513.082031 476.542969 L 521.417969 475.75 C 521.082031 475.082031 521 474.167969 520.667969 473.542969 L 518.875 460.375 C 545.125 323.707031 626.667969 150.25 718.875 52.417969 C 721.625 49.542969 724.417969 47.082031 727.125 44.332031 Z M 129.375 44.332031 "/>
</g>
</svg>
