<?xml version="1.0" encoding="UTF-8"?>
<svg xmlns="http://www.w3.org/2000/svg" xmlns:xlink="http://www.w3.org/1999/xlink" width="1000px" height="1000px" viewBox="0 0 1000 1000" version="1.1">
<g id="surface1">
<path style=" stroke:none;fill-rule:nonzero;fill:rgb(0%,0%,0%);fill-opacity:1;" d="M 519.335938 104.101562 C 488.671875 118.554688 475.78125 125.585938 454.101562 140.039062 C 433.789062 153.515625 428.710938 158.007812 430.859375 159.960938 C 431.835938 160.742188 439.257812 166.40625 447.460938 172.460938 C 478.710938 195.703125 502.539062 225.976562 512.109375 254.882812 C 515.820312 266.210938 516.601562 272.460938 516.40625 291.015625 C 516.40625 311.132812 515.625 315.429688 509.765625 332.8125 C 498.046875 367.382812 477.734375 396.484375 434.570312 441.015625 C 407.617188 468.945312 407.421875 469.140625 419.726562 461.132812 C 426.5625 456.835938 433.007812 453.125 433.984375 453.125 C 434.765625 453.125 435.546875 457.8125 435.546875 463.28125 C 435.546875 474.804688 439.0625 490.039062 443.945312 499.414062 L 447.265625 505.664062 L 440.039062 507.617188 C 435.9375 508.789062 417.382812 513.476562 399.023438 518.359375 L 365.234375 526.953125 L 365.234375 522.265625 C 365.234375 516.015625 369.921875 504.882812 376.171875 496.289062 C 379.6875 491.210938 378.515625 492.1875 371.484375 499.414062 C 358.007812 513.476562 351.5625 527.148438 351.5625 541.40625 C 351.5625 557.421875 357.03125 567.773438 373.4375 583.007812 C 408.984375 615.820312 489.257812 641.210938 583.203125 649.414062 L 597.265625 650.585938 L 607.03125 627.539062 C 625.585938 583.398438 640.234375 534.765625 647.851562 491.210938 C 650.585938 475.78125 651.171875 460.351562 651.367188 417.773438 L 651.367188 363.867188 L 683.59375 354.6875 C 744.53125 337.695312 810.15625 323.632812 841.40625 320.898438 C 853.320312 319.921875 855.46875 319.140625 855.46875 316.210938 C 855.46875 310.546875 818.554688 273.4375 799.414062 259.765625 C 758.203125 230.46875 701.5625 210.15625 624.21875 197.070312 L 596.875 192.382812 L 589.453125 180.664062 C 578.320312 163.28125 563.28125 132.226562 555.859375 111.328125 C 552.34375 101.171875 548.4375 92.578125 547.65625 92.382812 C 546.679688 91.992188 533.984375 97.265625 519.335938 104.101562 Z M 546.09375 110.742188 C 547.070312 113.671875 549.804688 119.726562 560.15625 141.40625 C 561.914062 145.117188 493.554688 136.914062 489.648438 133.007812 C 487.304688 130.664062 506.445312 120.117188 524.804688 113.28125 C 542.773438 106.640625 544.726562 106.445312 546.09375 110.742188 Z M 501.5625 144.335938 C 523.242188 149.804688 548.046875 154.296875 557.03125 154.296875 C 563.671875 154.296875 564.648438 154.6875 562.695312 157.03125 C 559.375 160.9375 528.515625 175.78125 523.828125 175.78125 C 517.382812 175.78125 487.304688 151.367188 482.03125 141.796875 C 480.273438 138.671875 480.46875 138.28125 483.398438 139.257812 C 485.15625 140.039062 493.359375 142.382812 501.5625 144.335938 Z M 476.367188 151.367188 C 479.882812 156.25 484.960938 161.71875 487.5 163.28125 C 495.3125 168.554688 492.96875 170.3125 480.078125 169.335938 C 466.992188 168.554688 452.734375 163.867188 451.5625 160.351562 C 450.78125 158.007812 465.234375 142.578125 468.164062 142.578125 C 469.140625 142.578125 472.851562 146.484375 476.367188 151.367188 Z M 577.539062 172.851562 C 587.890625 186.71875 588.476562 185.9375 566.210938 185.15625 C 555.078125 184.765625 543.359375 183.203125 540.039062 181.835938 L 534.179688 179.492188 L 545.3125 175 C 551.367188 172.460938 559.179688 168.75 562.695312 166.601562 C 566.40625 164.453125 569.921875 163.085938 570.507812 163.867188 C 571.09375 164.453125 574.21875 168.554688 577.539062 172.851562 Z M 479.882812 178.710938 C 489.0625 181.445312 490.039062 182.226562 494.921875 193.164062 C 497.65625 199.414062 500.585938 207.617188 501.367188 211.132812 L 502.539062 217.773438 L 494.726562 208.007812 C 490.429688 202.539062 481.445312 193.164062 474.804688 186.914062 C 461.523438 174.804688 462.304688 173.4375 479.882812 178.710938 Z M 537.304688 190.625 C 565.429688 195.117188 565.429688 195.117188 549.023438 205.859375 C 541.210938 210.742188 530.664062 218.945312 525.390625 223.828125 L 515.820312 232.8125 L 513.671875 224.21875 C 512.5 219.53125 509.570312 208.984375 507.03125 200.78125 L 502.539062 185.742188 L 511.523438 186.71875 C 516.40625 187.304688 528.125 189.0625 537.304688 190.625 Z M 572.851562 212.304688 C 576.757812 248.632812 576.953125 254.6875 573.632812 253.320312 C 572.070312 252.734375 561.523438 249.414062 550.390625 245.898438 C 539.257812 242.382812 529.492188 238.867188 528.320312 237.890625 C 525.78125 235.546875 541.210938 220.117188 556.640625 209.765625 C 563.671875 205.078125 569.921875 201.171875 570.507812 201.171875 C 571.289062 201.171875 572.265625 206.25 572.851562 212.304688 Z M 619.140625 204.101562 C 629.296875 205.859375 641.40625 208.203125 646.09375 209.375 L 654.492188 211.523438 L 640.625 219.140625 C 625 227.34375 613.867188 234.765625 597.460938 247.460938 L 586.328125 255.859375 L 583.984375 238.671875 C 582.8125 229.296875 581.054688 216.992188 580.273438 211.328125 L 578.710938 201.171875 L 589.648438 201.171875 C 595.703125 201.171875 608.984375 202.539062 619.140625 204.101562 Z M 664.0625 219.53125 C 664.0625 221.09375 661.71875 229.882812 658.984375 239.453125 C 653.125 259.765625 641.210938 283.789062 637.890625 281.835938 C 636.71875 281.054688 631.835938 277.734375 627.148438 274.609375 C 622.265625 271.484375 613.28125 266.796875 606.835938 264.648438 L 595.117188 260.351562 L 605.664062 251.953125 C 620.898438 240.039062 630.664062 233.398438 646.875 224.609375 C 662.695312 216.015625 664.0625 215.625 664.0625 219.53125 Z M 708.007812 226.953125 C 731.835938 233.984375 754.296875 242.578125 752.539062 244.140625 C 751.757812 244.921875 742.1875 248.4375 731.445312 251.953125 C 709.960938 258.984375 666.992188 277.148438 656.445312 283.789062 C 650 287.695312 649.804688 287.695312 651.367188 283.984375 C 659.765625 264.453125 666.601562 243.359375 668.359375 231.640625 L 670.703125 217.382812 L 682.617188 220.117188 C 689.0625 221.484375 700.585938 224.609375 708.007812 226.953125 Z M 762.304688 258.007812 C 759.570312 262.890625 721.289062 314.257812 704.101562 336.328125 L 700.390625 341.210938 L 691.210938 328.125 C 686.132812 320.898438 675.976562 309.765625 668.945312 303.320312 C 653.90625 289.648438 652.734375 291.796875 680.664062 280.273438 C 698.828125 272.65625 758.789062 252.148438 763.28125 252.148438 C 765.234375 251.953125 764.84375 253.515625 762.304688 258.007812 Z M 546.484375 259.375 C 556.640625 262.304688 564.648438 265.234375 564.648438 266.210938 C 564.453125 268.164062 525.390625 303.515625 524.609375 302.539062 C 524.023438 302.148438 523.4375 291.015625 523.046875 277.734375 C 522.65625 257.421875 522.851562 253.90625 525.390625 254.101562 C 526.953125 254.101562 536.523438 256.640625 546.484375 259.375 Z M 785.9375 262.695312 C 801.953125 272.265625 820.703125 287.5 832.03125 300.390625 C 837.304688 306.445312 841.796875 311.914062 841.796875 312.695312 C 841.796875 313.28125 835.351562 314.648438 827.734375 315.234375 C 808.007812 317.1875 765.234375 325.195312 737.5 332.03125 C 724.609375 335.351562 713.867188 337.695312 713.476562 337.304688 C 713.085938 336.914062 718.554688 329.6875 725.78125 321.09375 C 732.8125 312.695312 746.09375 294.53125 755.46875 280.664062 C 764.648438 266.992188 772.65625 255.859375 773.4375 255.859375 C 774.023438 255.859375 779.6875 258.984375 785.9375 262.695312 Z M 562.304688 304.296875 L 550.195312 335.351562 L 540.429688 328.710938 C 535.15625 325.195312 529.6875 322.265625 528.125 322.265625 C 526.5625 322.265625 525.390625 321.679688 525.390625 320.898438 C 525.390625 318.945312 572.851562 271.484375 573.828125 272.460938 C 574.21875 272.851562 569.140625 287.109375 562.304688 304.296875 Z M 607.226562 281.835938 C 614.257812 285.15625 620.117188 289.0625 620.507812 290.234375 C 621.289062 292.382812 557.03125 339.0625 555.664062 337.5 C 555.078125 337.109375 561.523438 322.460938 569.726562 304.882812 C 586.914062 268.554688 584.375 270.3125 607.226562 281.835938 Z M 629.6875 301.171875 C 624.21875 310.15625 567.578125 382.421875 566.40625 381.835938 C 565.625 381.445312 564.453125 377.148438 563.867188 372.460938 C 563.28125 367.773438 561.132812 359.570312 559.375 354.296875 C 557.617188 349.21875 557.03125 344.53125 557.8125 344.335938 C 558.789062 343.945312 575.390625 333.59375 594.726562 321.289062 C 614.0625 309.179688 630.078125 299.023438 630.46875 299.023438 C 630.859375 298.828125 630.46875 300 629.6875 301.171875 Z M 658.007812 313.28125 C 665.039062 318.164062 675.585938 326.757812 681.445312 332.617188 L 691.796875 343.359375 L 640.429688 359.960938 C 612.109375 369.140625 586.71875 377.148438 583.984375 377.929688 L 579.101562 379.296875 L 583.203125 374.804688 C 585.351562 372.265625 599.414062 355.46875 614.0625 337.304688 C 628.90625 319.335938 641.992188 304.6875 642.96875 304.6875 C 644.140625 304.6875 650.78125 308.59375 658.007812 313.28125 Z M 531.054688 341.015625 C 533.789062 343.554688 535.546875 345.898438 534.960938 346.289062 C 533.789062 347.265625 511.328125 362.304688 508.398438 363.867188 C 507.226562 364.648438 508.203125 359.765625 510.742188 353.125 C 513.28125 346.289062 515.820312 339.257812 516.40625 337.304688 C 517.773438 332.8125 524.414062 334.375 531.054688 341.015625 Z M 552.539062 357.8125 C 554.6875 362.5 556.835938 371.09375 557.421875 377.148438 L 558.789062 388.085938 L 540.625 394.53125 C 530.664062 398.046875 513.28125 405.273438 502.34375 410.351562 L 482.03125 419.921875 L 504.296875 396.484375 C 516.40625 383.59375 531.25 367.773438 537.109375 361.328125 C 542.96875 354.882812 548.046875 349.609375 548.4375 349.609375 C 548.828125 349.609375 550.585938 353.320312 552.539062 357.8125 Z M 505.859375 386.132812 C 505.859375 387.304688 499.023438 393.164062 490.820312 398.828125 C 468.945312 414.0625 468.75 414.0625 480.078125 401.367188 C 485.742188 394.921875 492.773438 385.9375 495.703125 381.25 L 500.976562 373.046875 L 503.320312 378.320312 C 504.6875 381.445312 505.664062 384.765625 505.859375 386.132812 Z M 643.359375 384.960938 C 643.945312 388.28125 644.53125 395.898438 644.53125 401.757812 L 644.53125 412.5 L 636.523438 405.273438 C 629.296875 398.828125 622.65625 395.117188 608.398438 389.648438 C 605.46875 388.476562 608.398438 387.109375 621.09375 383.789062 C 642.578125 377.929688 641.796875 377.929688 643.359375 384.960938 Z M 610.351562 401.367188 C 624.609375 408.203125 641.210938 420.898438 640.234375 424.21875 C 639.257812 427.148438 573.4375 462.695312 572.65625 460.742188 C 572.070312 459.375 583.007812 411.328125 587.304688 395.898438 C 588.476562 391.601562 591.210938 392.382812 610.351562 401.367188 Z M 572.265625 411.523438 C 572.265625 421.09375 566.992188 456.640625 565.429688 458.59375 C 562.890625 461.523438 538.085938 439.453125 529.101562 426.5625 L 523.632812 418.359375 L 546.484375 409.570312 C 558.984375 404.6875 569.921875 400.585938 570.898438 400.585938 C 571.679688 400.390625 572.265625 405.46875 572.265625 411.523438 Z M 522.070312 432.226562 C 526.953125 440.429688 543.164062 457.03125 552.734375 463.28125 C 557.617188 466.40625 557.617188 466.40625 553.710938 469.335938 C 547.070312 474.414062 505.664062 491.601562 487.5 496.875 C 467.382812 502.734375 464.0625 503.125 465.625 499.023438 C 466.601562 496.289062 516.015625 423.828125 516.796875 423.828125 C 516.992188 423.828125 519.335938 427.539062 522.070312 432.226562 Z M 491.796875 447.265625 C 481.25 466.992188 460.546875 496.289062 458.007812 495.507812 C 457.03125 495.117188 453.90625 490.625 451.171875 485.351562 C 445.898438 475 444.53125 455.078125 448.828125 450.78125 C 452.539062 447.070312 499.023438 428.125 499.609375 430.078125 C 500 430.859375 496.484375 438.671875 491.796875 447.265625 Z M 642.578125 474.414062 C 641.40625 484.570312 640.039062 493.359375 639.648438 493.75 C 637.890625 495.507812 613.671875 489.648438 600.585938 484.179688 C 587.304688 478.710938 574.21875 470.117188 576.171875 468.164062 C 576.757812 467.578125 592.1875 459.765625 610.351562 450.585938 L 643.554688 433.984375 L 644.140625 445.117188 C 644.53125 451.171875 643.75 464.453125 642.578125 474.414062 Z M 563.085938 476.953125 C 559.179688 492.382812 538.867188 527.148438 522.851562 545.703125 L 516.210938 553.320312 L 506.640625 547.65625 C 497.265625 542.382812 468.75 515.820312 468.75 512.5 C 468.75 511.523438 476.367188 508.203125 485.9375 505.273438 C 495.3125 502.148438 516.210938 493.75 532.226562 486.328125 C 548.4375 478.90625 562.109375 472.851562 562.890625 472.65625 C 563.476562 472.65625 563.671875 474.609375 563.085938 476.953125 Z M 580.46875 481.640625 C 592.773438 489.84375 616.796875 501.5625 627.734375 505.078125 L 635.742188 507.421875 L 630.078125 509.570312 C 626.953125 510.9375 604.296875 521.09375 579.492188 532.421875 C 554.882812 543.75 532.421875 553.90625 529.6875 554.882812 L 524.804688 556.835938 L 530.46875 549.414062 C 546.875 527.734375 565.039062 494.53125 567.578125 481.25 C 568.164062 477.539062 569.140625 474.609375 569.335938 474.609375 C 569.726562 474.609375 574.609375 477.734375 580.46875 481.640625 Z M 445.3125 516.601562 C 445.3125 517.1875 442.578125 523.046875 439.257812 529.6875 C 431.835938 544.53125 421.289062 558.789062 406.640625 574.609375 L 395.3125 586.523438 L 389.648438 583.398438 C 376.757812 576.757812 366.992188 560.9375 364.453125 542.773438 L 363.085938 533.59375 L 385.15625 528.515625 C 397.265625 525.78125 414.257812 521.875 422.851562 519.726562 C 439.453125 515.820312 445.3125 515.039062 445.3125 516.601562 Z M 633.789062 526.5625 C 633.203125 531.640625 629.101562 546.484375 624.804688 559.765625 C 618.75 578.515625 616.210938 583.984375 613.671875 583.984375 C 605.46875 583.789062 560.351562 574.21875 550.585938 570.507812 C 538.867188 566.015625 531.640625 561.523438 533.398438 559.765625 C 534.765625 558.398438 631.25 517.773438 633.59375 517.773438 C 634.375 517.578125 634.570312 521.679688 633.789062 526.5625 Z M 465.234375 528.125 C 469.140625 532.8125 479.101562 541.601562 487.304688 547.851562 C 495.507812 553.90625 501.5625 559.765625 500.585938 560.546875 C 495.703125 564.84375 417.578125 589.84375 408.789062 589.84375 C 407.226562 589.84375 410.351562 584.960938 416.015625 578.515625 C 426.367188 567.1875 449.023438 534.570312 453.320312 524.804688 C 454.6875 521.875 456.25 519.53125 456.835938 519.53125 C 457.617188 519.53125 461.328125 523.4375 465.234375 528.125 Z M 506.640625 580.46875 C 500.390625 592.773438 484.375 613.671875 476.757812 618.945312 C 471.484375 622.65625 471.484375 622.65625 457.226562 617.96875 C 441.40625 612.695312 423.242188 603.90625 416.210938 598.242188 L 411.523438 594.53125 L 436.132812 588.085938 C 449.804688 584.570312 472.070312 577.929688 485.742188 573.4375 C 503.710938 567.382812 510.9375 565.820312 511.328125 567.578125 C 511.71875 568.945312 509.570312 574.609375 506.640625 580.46875 Z M 533.59375 573.4375 C 543.75 578.710938 584.375 589.84375 592.773438 589.84375 C 614.648438 589.84375 558.789062 609.960938 506.25 621.09375 C 495.117188 623.4375 485.742188 625 485.15625 624.609375 C 484.765625 624.023438 490.039062 616.796875 496.875 608.398438 C 503.90625 600.195312 512.5 587.695312 516.015625 580.859375 C 519.53125 574.023438 522.65625 568.359375 523.046875 568.359375 C 523.242188 568.359375 528.125 570.703125 533.59375 573.4375 Z M 604.6875 610.742188 C 597.265625 632.421875 591.601562 642.578125 586.914062 642.578125 C 574.414062 642.578125 518.75 634.765625 507.03125 631.445312 C 504.6875 630.859375 514.648438 627.148438 532.421875 622.070312 C 548.4375 617.382812 571.289062 610.15625 583.007812 605.859375 C 594.921875 601.5625 605.46875 598.046875 606.835938 597.851562 C 608.398438 597.65625 607.617188 601.953125 604.6875 610.742188 Z M 604.6875 610.742188 "/>
<path style=" stroke:none;fill-rule:nonzero;fill:rgb(0%,0%,0%);fill-opacity:1;" d="M 614.648438 638.28125 C 615.820312 639.0625 617.1875 642.382812 617.773438 645.507812 L 618.554688 651.367188 L 618.945312 645.117188 C 618.945312 641.796875 620.3125 638.476562 621.679688 638.085938 C 622.851562 637.5 621.484375 636.914062 618.164062 636.914062 C 615.039062 636.914062 613.28125 637.5 614.648438 638.28125 Z M 614.648438 638.28125 "/>
<path style=" stroke:none;fill-rule:nonzero;fill:rgb(0%,0%,0%);fill-opacity:1;" d="M 625.195312 642.96875 C 625.390625 649.023438 625.390625 649.21875 626.953125 644.53125 C 627.734375 641.796875 628.515625 640.820312 628.710938 642.382812 C 628.90625 643.945312 629.296875 644.726562 629.882812 644.140625 C 631.445312 642.773438 628.90625 636.71875 626.757812 636.71875 C 625.78125 636.71875 625 639.648438 625.195312 642.96875 Z M 625.195312 642.96875 "/>
<path style=" stroke:none;fill-rule:nonzero;fill:rgb(0%,0%,0%);fill-opacity:1;" d="M 635.9375 638.28125 C 635.351562 639.257812 635.742188 642.578125 636.71875 645.703125 C 638.28125 651.367188 638.28125 651.367188 638.476562 643.945312 C 638.671875 636.914062 637.890625 635.15625 635.9375 638.28125 Z M 635.9375 638.28125 "/>
<path style=" stroke:none;fill-rule:nonzero;fill:rgb(0%,0%,0%);fill-opacity:1;" d="M 632.226562 645.898438 C 631.445312 646.484375 630.859375 648.046875 630.859375 649.21875 C 630.859375 650.390625 631.835938 650.195312 633.203125 648.828125 C 634.375 647.65625 634.960938 646.09375 634.570312 645.507812 C 633.984375 644.921875 632.8125 645.117188 632.226562 645.898438 Z M 632.226562 645.898438 "/>
<path style=" stroke:none;fill-rule:nonzero;fill:rgb(0%,0%,0%);fill-opacity:1;" d="M 0 674.804688 C 0 701.757812 0.195312 703.125 3.90625 703.125 C 7.617188 703.125 7.8125 701.757812 8.007812 681.054688 L 8.203125 659.179688 L 15.429688 680.664062 C 25.585938 710.546875 27.734375 710.546875 38.085938 680.273438 L 45.898438 657.226562 L 46.484375 680.078125 C 46.875 698.828125 47.460938 703.125 49.804688 703.125 C 52.34375 703.125 52.734375 698.4375 52.734375 674.804688 L 52.734375 646.484375 L 48.242188 646.484375 C 44.140625 646.484375 42.773438 648.632812 37.109375 665.429688 C 33.59375 675.976562 29.882812 686.71875 28.90625 689.453125 C 27.34375 693.75 25.976562 691.210938 19.335938 670.3125 C 11.71875 647.070312 11.328125 646.484375 5.664062 646.484375 L 0 646.484375 Z M 0 674.804688 "/>
<path style=" stroke:none;fill-rule:nonzero;fill:rgb(0%,0%,0%);fill-opacity:1;" d="M 64.453125 650.390625 C 64.453125 652.929688 65.820312 654.296875 68.359375 654.296875 C 70.898438 654.296875 72.265625 652.929688 72.265625 650.390625 C 72.265625 647.851562 70.898438 646.484375 68.359375 646.484375 C 65.820312 646.484375 64.453125 647.851562 64.453125 650.390625 Z M 64.453125 650.390625 "/>
<path style=" stroke:none;fill-rule:nonzero;fill:rgb(0%,0%,0%);fill-opacity:1;" d="M 277.34375 650.195312 C 276.367188 652.34375 275.390625 655.859375 275.390625 658.007812 C 275.390625 660.351562 274.023438 662.109375 272.460938 662.109375 C 270.898438 662.109375 269.53125 663.476562 269.53125 665.039062 C 269.53125 666.601562 270.898438 667.96875 272.460938 667.96875 C 274.804688 667.96875 275.390625 671.289062 275.390625 685.546875 C 275.390625 701.757812 275.585938 703.125 279.296875 703.125 C 283.007812 703.125 283.203125 701.757812 283.203125 685.546875 C 283.203125 669.335938 283.398438 667.96875 287.109375 667.96875 C 289.257812 667.96875 291.015625 666.601562 291.015625 665.039062 C 291.015625 663.28125 289.257812 662.109375 286.914062 662.109375 C 281.054688 662.109375 282.617188 653.515625 288.671875 652.734375 C 291.015625 652.34375 292.96875 650.78125 292.96875 649.21875 C 292.96875 644.726562 279.882812 645.703125 277.34375 650.195312 Z M 277.34375 650.195312 "/>
<path style=" stroke:none;fill-rule:nonzero;fill:rgb(0%,0%,0%);fill-opacity:1;" d="M 299.21875 650.78125 C 297.851562 652.148438 296.875 655.078125 296.875 657.617188 C 296.875 660.15625 296.09375 662.109375 294.921875 662.109375 C 293.945312 662.109375 292.96875 663.476562 292.96875 665.039062 C 292.96875 666.601562 293.945312 667.96875 294.921875 667.96875 C 296.09375 667.96875 296.875 674.414062 296.875 683.203125 C 296.875 700 298.4375 703.125 307.03125 703.125 C 310.9375 703.125 312.109375 702.34375 311.328125 700.195312 C 310.546875 698.632812 308.984375 697.265625 307.421875 697.265625 C 305.273438 697.265625 304.6875 693.75 304.6875 682.617188 C 304.6875 670.898438 305.273438 667.96875 307.617188 667.96875 C 309.179688 667.96875 310.546875 666.601562 310.546875 665.039062 C 310.546875 663.476562 309.179688 662.109375 307.617188 662.109375 C 305.664062 662.109375 304.6875 659.960938 304.6875 655.273438 C 304.6875 648.046875 303.125 646.875 299.21875 650.78125 Z M 299.21875 650.78125 "/>
<path style=" stroke:none;fill-rule:nonzero;fill:rgb(0%,0%,0%);fill-opacity:1;" d="M 322.65625 655.46875 C 320.3125 657.03125 318.359375 659.179688 318.359375 660.351562 C 318.359375 661.328125 320.117188 660.351562 322.265625 658.203125 C 324.414062 656.054688 327.929688 654.296875 330.078125 654.296875 C 332.226562 654.296875 335.742188 656.054688 337.890625 658.203125 C 340.039062 660.351562 341.796875 663.867188 341.796875 666.015625 C 341.796875 668.164062 340.039062 671.679688 337.890625 673.828125 C 335.742188 675.976562 334.765625 677.734375 335.742188 677.734375 C 338.476562 677.734375 343.75 669.726562 343.75 665.429688 C 343.75 663.476562 341.601562 659.765625 338.867188 657.226562 C 333.398438 651.5625 328.90625 651.171875 322.65625 655.46875 Z M 322.65625 655.46875 "/>
<path style=" stroke:none;fill-rule:nonzero;fill:rgb(0%,0%,0%);fill-opacity:1;" d="M 324.21875 666.015625 C 324.21875 670.3125 323.4375 673.828125 322.265625 673.828125 C 321.289062 673.828125 320.3125 672.851562 320.3125 671.484375 C 320.3125 670.3125 319.726562 669.921875 319.140625 670.507812 C 317.578125 672.070312 321.875 677.734375 324.609375 677.734375 C 325.585938 677.734375 325.78125 676.757812 325.195312 675.78125 C 324.609375 674.609375 325 673.828125 325.976562 673.828125 C 327.148438 673.828125 328.125 672.460938 328.125 670.898438 C 328.125 666.992188 330.078125 667.1875 333.203125 671.289062 C 334.570312 673.242188 335.9375 673.828125 335.9375 672.460938 C 335.9375 671.289062 334.960938 669.53125 333.984375 668.945312 C 332.421875 667.96875 332.617188 666.796875 333.984375 665.039062 C 337.109375 661.328125 334.765625 658.203125 328.90625 658.203125 C 324.804688 658.203125 324.21875 658.984375 324.21875 666.015625 Z M 333.007812 662.109375 C 333.59375 663.085938 332.8125 664.0625 331.25 664.0625 C 329.492188 664.0625 328.125 663.085938 328.125 662.109375 C 328.125 660.9375 328.90625 660.15625 329.882812 660.15625 C 331.054688 660.15625 332.421875 660.9375 333.007812 662.109375 Z M 333.007812 662.109375 "/>
<path style=" stroke:none;fill-rule:nonzero;fill:rgb(0%,0%,0%);fill-opacity:1;" d="M 64.453125 682.617188 C 64.453125 701.757812 64.648438 703.125 68.359375 703.125 C 72.070312 703.125 72.265625 701.757812 72.265625 682.617188 C 72.265625 663.476562 72.070312 662.109375 68.359375 662.109375 C 64.648438 662.109375 64.453125 663.476562 64.453125 682.617188 Z M 64.453125 682.617188 "/>
<path style=" stroke:none;fill-rule:nonzero;fill:rgb(0%,0%,0%);fill-opacity:1;" d="M 85.15625 668.164062 C 73.828125 681.640625 81.640625 703.125 97.851562 703.125 C 108.984375 703.125 120.3125 691.796875 112.304688 688.671875 C 110.351562 687.890625 108.398438 689.257812 107.03125 692.382812 C 105.273438 696.09375 103.320312 697.265625 98.4375 697.265625 C 90.820312 697.265625 87.890625 693.164062 87.890625 682.617188 C 87.890625 678.710938 88.867188 673.828125 89.84375 671.679688 C 92.773438 666.601562 102.34375 666.796875 106.25 672.070312 C 108.203125 675 109.960938 675.78125 112.304688 674.414062 C 115.039062 672.851562 115.039062 672.070312 111.328125 667.382812 C 108.007812 663.085938 105.46875 662.109375 98.632812 662.109375 C 91.601562 662.109375 89.257812 663.085938 85.15625 668.164062 Z M 85.15625 668.164062 "/>
<path style=" stroke:none;fill-rule:nonzero;fill:rgb(0%,0%,0%);fill-opacity:1;" d="M 121.09375 682.617188 C 121.09375 701.757812 121.289062 703.125 125 703.125 C 128.515625 703.125 128.90625 701.757812 128.90625 687.5 C 128.90625 674.023438 129.492188 671.679688 132.8125 669.921875 C 134.765625 668.75 137.695312 668.164062 139.0625 668.359375 C 140.234375 668.75 141.796875 667.382812 142.1875 665.429688 C 142.773438 662.890625 141.601562 662.109375 137.304688 662.109375 C 134.179688 662.109375 130.664062 663.085938 129.296875 664.453125 C 127.539062 666.210938 126.953125 666.210938 126.953125 664.453125 C 126.953125 663.085938 125.585938 662.109375 124.023438 662.109375 C 121.679688 662.109375 121.09375 665.625 121.09375 682.617188 Z M 121.09375 682.617188 "/>
<path style=" stroke:none;fill-rule:nonzero;fill:rgb(0%,0%,0%);fill-opacity:1;" d="M 151.367188 666.796875 C 137.695312 680.46875 145.703125 703.125 164.0625 703.125 C 174.023438 703.125 181.054688 697.265625 182.617188 687.695312 C 184.179688 678.710938 180.078125 667.382812 174.21875 664.257812 C 167.1875 660.546875 156.445312 661.71875 151.367188 666.796875 Z M 172.65625 672.265625 C 179.492188 681.835938 174.414062 697.265625 164.648438 697.265625 C 161.71875 697.265625 157.8125 695.898438 155.859375 693.945312 C 151.367188 689.84375 151.171875 676.5625 155.664062 671.484375 C 160.15625 666.601562 168.945312 666.992188 172.65625 672.265625 Z M 172.65625 672.265625 "/>
<path style=" stroke:none;fill-rule:nonzero;fill:rgb(0%,0%,0%);fill-opacity:1;" d="M 192.578125 666.40625 C 186.132812 675.390625 189.648438 680.664062 204.882812 685.546875 C 211.523438 687.695312 213.867188 689.453125 213.867188 692.382812 C 213.867188 698.4375 200.585938 699.023438 196.679688 693.164062 C 193.554688 688.867188 189.453125 689.453125 189.453125 694.335938 C 189.453125 699.21875 198.242188 703.320312 207.226562 702.734375 C 213.476562 702.34375 216.40625 700.976562 219.335938 696.875 C 225.390625 688.867188 221.875 683.398438 208.203125 679.101562 C 199.804688 676.367188 197.265625 674.609375 197.265625 671.679688 C 197.265625 668.75 198.632812 667.96875 204.101562 667.96875 C 208.398438 667.96875 211.523438 669.140625 212.109375 670.898438 C 212.890625 672.460938 214.453125 673.828125 215.820312 673.828125 C 220.507812 673.828125 220.898438 670.117188 216.796875 666.015625 C 211.132812 660.351562 196.679688 660.546875 192.578125 666.40625 Z M 192.578125 666.40625 "/>
<path style=" stroke:none;fill-rule:nonzero;fill:rgb(0%,0%,0%);fill-opacity:1;" d="M 233.398438 667.1875 C 229.492188 671.484375 228.515625 674.609375 228.515625 682.617188 C 228.515625 696.484375 234.375 703.125 246.484375 703.125 C 251.171875 703.125 256.25 701.953125 258.007812 700.585938 C 267.1875 693.554688 268.359375 677.34375 260.546875 668.164062 C 256.25 663.085938 254.101562 662.109375 246.875 662.109375 C 239.84375 662.109375 237.109375 663.085938 233.398438 667.1875 Z M 256.054688 672.070312 C 257.226562 674.414062 258.203125 679.101562 258.203125 682.617188 C 258.203125 692.773438 254.6875 697.265625 247.265625 697.265625 C 243.554688 697.265625 239.453125 695.898438 238.085938 693.945312 C 234.570312 689.84375 234.570312 675.390625 238.085938 671.289062 C 241.992188 666.40625 253.320312 666.992188 256.054688 672.070312 Z M 256.054688 672.070312 "/>
<path style=" stroke:none;fill-rule:nonzero;fill:rgb(0%,0%,0%);fill-opacity:1;" d="M 31.25 728.320312 C -2.734375 738.671875 -9.960938 775.390625 18.164062 794.726562 C 22.65625 797.65625 33.59375 803.90625 42.578125 808.59375 C 61.328125 818.359375 68.359375 825.390625 68.359375 835.15625 C 68.359375 847.65625 62.109375 853.710938 45.507812 856.445312 C 36.132812 858.007812 16.40625 853.515625 6.445312 847.65625 L 0 843.945312 L 0 854.296875 C 0 866.601562 1.953125 867.96875 24.609375 871.484375 C 68.945312 878.320312 99.414062 851.367188 83.789062 818.945312 C 78.90625 808.789062 72.851562 803.90625 48.632812 791.015625 C 38.476562 785.546875 28.320312 778.90625 25.976562 776.171875 C 16.015625 765.234375 18.554688 752.734375 32.03125 746.09375 C 44.726562 740.039062 59.570312 740.820312 78.710938 749.023438 C 81.640625 750.195312 82.03125 749.21875 82.03125 740.625 C 82.03125 730.859375 82.03125 730.664062 74.804688 728.710938 C 66.40625 726.367188 38.671875 726.171875 31.25 728.320312 Z M 31.25 728.320312 "/>
<path style=" stroke:none;fill-rule:nonzero;fill:rgb(0%,0%,0%);fill-opacity:1;" d="M 147.65625 731.25 C 119.53125 743.164062 106.25 767.578125 107.8125 804.492188 C 108.398438 819.335938 109.570312 825.390625 113.671875 834.179688 C 123.4375 855.273438 141.210938 869.140625 162.5 872.265625 C 170.703125 873.242188 173.632812 875.195312 185.351562 886.71875 C 192.773438 894.140625 201.5625 901.5625 204.6875 903.125 C 213.867188 907.8125 227.34375 910.15625 237.109375 908.984375 L 246.09375 907.617188 L 246.09375 890.820312 L 236.328125 891.992188 C 223.632812 893.554688 212.695312 889.257812 201.171875 878.515625 L 192.382812 870.507812 L 200.585938 867.773438 C 212.109375 863.867188 227.34375 849.609375 233.203125 836.914062 C 243.554688 815.429688 243.945312 784.179688 234.375 762.5 C 229.492188 750.976562 217.773438 738.867188 206.25 732.8125 C 198.046875 728.710938 193.164062 727.734375 177.734375 727.148438 C 161.523438 726.5625 157.8125 726.953125 147.65625 731.25 Z M 188.476562 744.335938 C 200.195312 747.265625 211.328125 757.421875 216.796875 769.921875 C 220.507812 778.125 221.484375 783.789062 221.484375 797.851562 C 221.679688 825.390625 214.453125 841.015625 197.265625 850.390625 C 189.648438 854.492188 184.960938 855.664062 174.804688 855.664062 C 152.734375 855.859375 136.523438 844.53125 129.6875 823.632812 C 125.585938 811.328125 125.585938 787.109375 129.882812 775.585938 C 139.0625 749.804688 161.914062 737.695312 188.476562 744.335938 Z M 188.476562 744.335938 "/>
<path style=" stroke:none;fill-rule:nonzero;fill:rgb(0%,0%,0%);fill-opacity:1;" d="M 442.578125 729.492188 C 414.257812 739.453125 405.664062 770.117188 425.585938 789.0625 C 429.492188 792.773438 441.796875 800.585938 452.734375 806.445312 C 475.390625 818.359375 482.421875 825.195312 482.421875 835.15625 C 482.421875 843.945312 479.6875 848.828125 473.046875 852.34375 C 459.570312 858.984375 438.671875 857.617188 422.460938 848.632812 L 414.0625 843.945312 L 414.0625 854.296875 C 414.0625 866.601562 416.015625 867.96875 438.671875 871.484375 C 483.007812 878.320312 513.476562 851.367188 497.851562 818.945312 C 492.96875 808.789062 486.914062 803.90625 462.695312 790.820312 C 440.820312 778.90625 435.9375 774.804688 434.375 766.601562 C 432.617188 757.421875 437.695312 749.21875 447.265625 745.3125 C 460.15625 740.234375 474.609375 741.40625 492.773438 749.023438 C 495.703125 750.195312 496.09375 749.21875 496.09375 740.625 C 496.09375 730.859375 496.09375 730.664062 488.867188 728.710938 C 478.320312 725.78125 451.5625 726.171875 442.578125 729.492188 Z M 442.578125 729.492188 "/>
<path style=" stroke:none;fill-rule:nonzero;fill:rgb(0%,0%,0%);fill-opacity:1;" d="M 269.53125 799.804688 L 269.53125 871.09375 L 343.75 871.09375 L 343.75 853.515625 L 287.109375 853.515625 L 287.109375 728.515625 L 269.53125 728.515625 Z M 269.53125 799.804688 "/>
<path style=" stroke:none;fill-rule:nonzero;fill:rgb(0%,0%,0%);fill-opacity:1;" d="M 558.59375 767.773438 C 546.875 770.117188 535.546875 778.320312 528.515625 789.648438 C 523.632812 797.65625 522.65625 801.5625 521.875 815.625 C 520.703125 836.523438 523.632812 847.070312 533.59375 858.398438 C 539.648438 865.234375 543.75 867.96875 552.34375 870.3125 C 565.429688 874.21875 582.03125 873.046875 594.921875 867.382812 C 602.929688 863.671875 603.515625 863.085938 603.515625 855.664062 L 603.515625 847.851562 L 593.359375 852.539062 C 579.882812 858.789062 562.5 859.179688 553.125 853.515625 C 546.484375 849.414062 539.257812 836.523438 539.0625 828.515625 L 539.0625 824.21875 L 609.375 824.21875 L 609.375 813.28125 C 609.375 807.226562 608.203125 798.632812 607.03125 794.140625 C 603.710938 783.007812 590.429688 770.117188 580.664062 768.554688 C 576.5625 767.773438 571.875 766.992188 570.3125 766.601562 C 568.75 766.40625 563.476562 766.796875 558.59375 767.773438 Z M 580.273438 784.570312 C 586.523438 788.28125 591.796875 797.851562 591.796875 805.46875 L 591.796875 810.546875 L 565.429688 810.546875 C 550.390625 810.546875 539.0625 809.765625 539.0625 808.789062 C 539.0625 801.171875 549.804688 786.328125 557.617188 783.203125 C 564.0625 780.46875 574.21875 781.054688 580.273438 784.570312 Z M 580.273438 784.570312 "/>
<path style=" stroke:none;fill-rule:nonzero;fill:rgb(0%,0%,0%);fill-opacity:1;" d="M 843.75 767.578125 C 821.484375 771.679688 804.6875 793.945312 804.6875 819.53125 C 804.6875 841.796875 813.476562 859.570312 828.515625 867.578125 C 839.84375 873.632812 866.210938 873.828125 877.929688 868.164062 C 884.960938 864.648438 885.742188 863.476562 886.328125 856.25 L 886.914062 848.046875 L 877.734375 852.734375 C 865.625 858.789062 847.65625 859.179688 838.28125 853.515625 C 830.273438 848.632812 824.21875 838.671875 824.21875 830.46875 L 824.21875 824.21875 L 895.117188 824.21875 L 893.945312 810.15625 C 893.164062 801.171875 891.015625 792.96875 888.085938 787.304688 C 880.46875 772.265625 862.109375 764.257812 843.75 767.578125 Z M 863.085938 783.789062 C 868.945312 786.71875 874.414062 795.703125 875.390625 803.710938 L 875.976562 809.570312 L 823.632812 810.742188 L 824.804688 804.6875 C 828.515625 786.71875 848.046875 775.976562 863.085938 783.789062 Z M 863.085938 783.789062 "/>
<path style=" stroke:none;fill-rule:nonzero;fill:rgb(0%,0%,0%);fill-opacity:1;" d="M 665.234375 771.679688 C 662.109375 774.023438 658.007812 778.710938 656.054688 782.03125 L 652.34375 788.085938 L 652.34375 769.53125 L 634.765625 769.53125 L 634.765625 871.09375 L 652.34375 871.09375 L 652.34375 839.257812 C 652.34375 812.695312 652.929688 806.445312 656.054688 799.804688 C 661.71875 787.5 666.601562 784.179688 679.101562 784.375 L 689.648438 784.765625 L 689.0625 776.5625 L 688.476562 768.554688 L 679.492188 767.96875 C 672.851562 767.578125 669.335938 768.359375 665.234375 771.679688 Z M 665.234375 771.679688 "/>
<path style=" stroke:none;fill-rule:nonzero;fill:rgb(0%,0%,0%);fill-opacity:1;" d="M 949.804688 771.484375 C 946.289062 773.4375 941.992188 778.125 940.039062 781.640625 L 936.523438 788.085938 L 935.9375 778.710938 L 935.351562 769.53125 L 917.96875 769.53125 L 917.96875 871.09375 L 935.546875 871.09375 L 935.546875 843.75 C 935.546875 828.90625 936.523438 812.109375 937.695312 806.835938 C 941.210938 790.039062 954.6875 779.882812 967.1875 784.765625 L 972.65625 786.71875 L 972.65625 767.578125 L 964.453125 767.578125 C 959.570312 767.578125 953.320312 769.140625 949.804688 771.484375 Z M 949.804688 771.484375 "/>
<path style=" stroke:none;fill-rule:nonzero;fill:rgb(0%,0%,0%);fill-opacity:1;" d="M 703.125 779.6875 C 705.273438 785.351562 713.867188 808.007812 722.265625 830.078125 L 737.5 870.117188 L 746.289062 870.703125 L 755.273438 871.289062 L 774.023438 823.828125 C 784.375 797.65625 793.359375 774.804688 794.140625 772.851562 C 795.3125 769.726562 794.335938 769.335938 785.9375 769.921875 L 776.367188 770.507812 L 770.898438 786.132812 C 767.773438 794.726562 760.9375 814.0625 755.664062 829.101562 C 750.390625 844.140625 746.09375 854.296875 746.09375 851.5625 C 745.898438 848.828125 739.84375 829.492188 732.617188 808.59375 L 719.335938 770.507812 L 709.375 769.921875 L 699.21875 769.335938 Z M 703.125 779.6875 "/>
<path style=" stroke:none;fill-rule:nonzero;fill:rgb(0%,0%,0%);fill-opacity:1;" d="M 991.210938 771.679688 C 989.0625 772.460938 988.476562 773.242188 989.84375 773.242188 C 991.015625 773.4375 992.1875 774.414062 992.1875 775.585938 C 992.1875 776.5625 991.40625 776.953125 990.234375 776.367188 C 987.304688 774.414062 987.890625 777.34375 991.40625 780.664062 C 993.75 783.203125 994.335938 783.203125 994.140625 781.054688 C 993.945312 779.492188 993.75 776.5625 993.945312 774.414062 C 994.140625 770.117188 997.265625 772.460938 998.632812 778.320312 C 999.414062 782.03125 999.609375 782.03125 999.804688 778.125 C 1000 772.65625 996.09375 769.53125 991.210938 771.679688 Z M 991.210938 771.679688 "/>
<path style=" stroke:none;fill-rule:nonzero;fill:rgb(0%,0%,0%);fill-opacity:1;" d="M 982.421875 781.054688 C 982.421875 782.226562 983.203125 783.59375 984.375 784.179688 C 985.546875 784.765625 985.742188 783.984375 985.15625 782.421875 C 983.789062 778.90625 982.421875 778.320312 982.421875 781.054688 Z M 982.421875 781.054688 "/>
<path style=" stroke:none;fill-rule:nonzero;fill:rgb(0%,0%,0%);fill-opacity:1;" d="M 989.84375 786.523438 C 991.210938 787.109375 992.96875 786.914062 993.554688 786.328125 C 994.335938 785.742188 993.164062 785.15625 991.015625 785.351562 C 988.867188 785.351562 988.28125 785.9375 989.84375 786.523438 Z M 989.84375 786.523438 "/>
</g>
</svg>
